<svg width="52" height="68" viewBox="0 0 52 68" fill="none" xmlns="http://www.w3.org/2000/svg">
<path d="M52 23.596C51.9661 23.2837 51.9008 22.9759 51.805 22.678V22.372C51.6487 22.0224 51.4403 21.7011 51.1875 21.42V21.42L31.6875 1.02C31.4188 0.755535 31.1117 0.537475 30.7775 0.374H30.485C30.1548 0.17592 29.7902 0.0487703 29.4125 0H9.75C7.16414 0 4.68419 1.07464 2.85571 2.98751C1.02723 4.90038 0 7.49479 0 10.2V57.8C0 60.5052 1.02723 63.0996 2.85571 65.0125C4.68419 66.9254 7.16414 68 9.75 68H42.25C44.8359 68 47.3158 66.9254 49.1443 65.0125C50.9728 63.0996 52 60.5052 52 57.8V23.8C52 23.8 52 23.8 52 23.596ZM32.5 11.594L40.9175 20.4H35.75C34.888 20.4 34.0614 20.0418 33.4519 19.4042C32.8424 18.7665 32.5 17.9017 32.5 17V11.594ZM45.5 57.8C45.5 58.7017 45.1576 59.5665 44.5481 60.2042C43.9386 60.8418 43.112 61.2 42.25 61.2H9.75C8.88805 61.2 8.0614 60.8418 7.4519 60.2042C6.84241 59.5665 6.5 58.7017 6.5 57.8V10.2C6.5 9.29826 6.84241 8.43346 7.4519 7.79584C8.0614 7.15821 8.88805 6.8 9.75 6.8H26V17C26 19.7052 27.0272 22.2996 28.8557 24.2125C30.6842 26.1254 33.1641 27.2 35.75 27.2H45.5V57.8Z" fill="#A8E6CF"/>
</svg>
