<svg width="61" height="54" viewBox="0 0 61 54" fill="none" xmlns="http://www.w3.org/2000/svg">
<path d="M51.85 8.52637H32.696L31.72 5.68427C31.0873 4.01661 29.9136 2.5736 28.3616 1.55515C26.8097 0.536704 24.9562 -0.00675539 23.058 6.33891e-05H9.15C6.72327 6.33891e-05 4.39593 0.898368 2.67997 2.49736C0.964015 4.09635 0 6.26505 0 8.52637V45.4737C0 47.735 0.964015 49.9037 2.67997 51.5027C4.39593 53.1017 6.72327 54 9.15 54H51.85C54.2767 54 56.6041 53.1017 58.32 51.5027C60.036 49.9037 61 47.735 61 45.4737V17.0527C61 14.7914 60.036 12.6227 58.32 11.0237C56.6041 9.42467 54.2767 8.52637 51.85 8.52637ZM54.9 45.4737C54.9 46.2275 54.5787 46.9504 54.0067 47.4834C53.4347 48.0164 52.6589 48.3158 51.85 48.3158H9.15C8.34109 48.3158 7.56531 48.0164 6.99332 47.4834C6.42134 46.9504 6.1 46.2275 6.1 45.4737V8.52637C6.1 7.7726 6.42134 7.0497 6.99332 6.5167C7.56531 5.9837 8.34109 5.68427 9.15 5.68427H23.058C23.6974 5.68273 24.3212 5.86849 24.8411 6.21529C25.3611 6.56209 25.7509 7.05239 25.9555 7.6169L27.6025 12.2779C27.8071 12.8424 28.1969 13.3327 28.7169 13.6795C29.2368 14.0264 29.8606 14.2121 30.5 14.2106H51.85C52.6589 14.2106 53.4347 14.51 54.0067 15.043C54.5787 15.576 54.9 16.2989 54.9 17.0527V45.4737Z" fill="#FFAAA5"/>
</svg>
