<svg width="52" height="73" viewBox="0 0 52 73" fill="none" xmlns="http://www.w3.org/2000/svg">
<path d="M52 25.6558C51.9661 25.3287 51.9008 25.0064 51.805 24.6944V24.3739C51.6487 24.0077 51.4403 23.6711 51.1875 23.3768V23.3768L31.6875 2.01045C31.4188 1.73346 31.1117 1.50507 30.7775 1.33385C30.6805 1.31876 30.582 1.31876 30.485 1.33385C30.1548 1.12639 29.7902 0.993219 29.4125 0.942139H9.75C7.16414 0.942139 4.68419 2.06768 2.85571 4.07116C1.02723 6.07464 0 8.79195 0 11.6253V61.48C0 64.3134 1.02723 67.0307 2.85571 69.0342C4.68419 71.0377 7.16414 72.1632 9.75 72.1632H42.25C44.8359 72.1632 47.3158 71.0377 49.1443 69.0342C50.9728 67.0307 52 64.3134 52 61.48V25.8695C52 25.8695 52 25.8695 52 25.6558ZM32.5 13.0853L40.9175 22.3085H35.75C34.888 22.3085 34.0614 21.9333 33.4519 21.2654C32.8424 20.5976 32.5 19.6919 32.5 18.7474V13.0853ZM45.5 61.48C45.5 62.4245 45.1576 63.3303 44.5481 63.9981C43.9386 64.6659 43.112 65.0411 42.25 65.0411H9.75C8.88805 65.0411 8.0614 64.6659 7.4519 63.9981C6.84241 63.3303 6.5 62.4245 6.5 61.48V11.6253C6.5 10.6808 6.84241 9.77508 7.4519 9.10725C8.0614 8.43943 8.88805 8.06424 9.75 8.06424H26V18.7474C26 21.5808 27.0272 24.2981 28.8557 26.3015C30.6842 28.305 33.1641 29.4306 35.75 29.4306H45.5V61.48ZM32.5 43.6748H29.25V40.1137C29.25 39.1693 28.9076 38.2635 28.2981 37.5957C27.6886 36.9278 26.862 36.5527 26 36.5527C25.138 36.5527 24.3114 36.9278 23.7019 37.5957C23.0924 38.2635 22.75 39.1693 22.75 40.1137V43.6748H19.5C18.638 43.6748 17.8114 44.05 17.2019 44.7178C16.5924 45.3856 16.25 46.2914 16.25 47.2358C16.25 48.1803 16.5924 49.086 17.2019 49.7539C17.8114 50.4217 18.638 50.7969 19.5 50.7969H22.75V54.3579C22.75 55.3024 23.0924 56.2082 23.7019 56.876C24.3114 57.5438 25.138 57.919 26 57.919C26.862 57.919 27.6886 57.5438 28.2981 56.876C28.9076 56.2082 29.25 55.3024 29.25 54.3579V50.7969H32.5C33.362 50.7969 34.1886 50.4217 34.7981 49.7539C35.4076 49.086 35.75 48.1803 35.75 47.2358C35.75 46.2914 35.4076 45.3856 34.7981 44.7178C34.1886 44.05 33.362 43.6748 32.5 43.6748Z" fill="#FFAAA5"/>
</svg>
