<svg width="42" height="42" viewBox="0 0 42 42" fill="none" xmlns="http://www.w3.org/2000/svg">
<path d="M21 0C16.9193 0.00774657 12.9288 1.20099 9.51477 3.4344C6.10071 5.66781 3.41037 8.84498 1.77145 12.5789C0.132536 16.3129 -0.384228 20.4424 0.284107 24.4646C0.952442 28.4867 2.77703 32.2279 5.53563 35.2324V35.2324C7.50586 37.3662 9.89709 39.0692 12.5586 40.2339C15.2202 41.3987 18.0943 42 21 42C23.9057 42 26.7798 41.3987 29.4414 40.2339C32.1029 39.0692 34.4941 37.3662 36.4644 35.2324V35.2324C39.223 32.2279 41.0476 28.4867 41.7159 24.4646C42.3842 20.4424 41.8675 16.3129 40.2286 12.5789C38.5896 8.84498 35.8993 5.66781 32.4852 3.4344C29.0712 1.20099 25.0807 0.00774657 21 0V0ZM21 37.8391C16.6415 37.8325 12.4555 36.1369 9.32282 33.1092C10.2739 30.7959 11.8919 28.8172 13.9711 27.4247C16.0503 26.0322 18.4969 25.2887 21 25.2887C23.5031 25.2887 25.9497 26.0322 28.0289 27.4247C30.1081 28.8172 31.7261 30.7959 32.6772 33.1092C29.5445 36.1369 25.3585 37.8325 21 37.8391ZM16.792 16.8174C16.792 15.9858 17.0388 15.173 17.5012 14.4816C17.9636 13.7902 18.6208 13.2513 19.3897 12.9331C20.1586 12.6149 21.0047 12.5316 21.8209 12.6938C22.6372 12.856 23.387 13.2565 23.9755 13.8445C24.564 14.4325 24.9648 15.1816 25.1271 15.9972C25.2895 16.8127 25.2062 17.6581 24.8877 18.4263C24.5692 19.1946 24.0298 19.8512 23.3378 20.3132C22.6458 20.7751 21.8323 21.0217 21 21.0217C19.884 21.0217 18.8137 20.5788 18.0245 19.7903C17.2353 19.0018 16.792 17.9324 16.792 16.8174ZM35.5386 29.4304C33.6588 26.2178 30.7655 23.7189 27.312 22.3251C28.3833 21.1114 29.0813 19.6147 29.3223 18.0144C29.5633 16.4142 29.337 14.7785 28.6706 13.3036C28.0043 11.8287 26.9261 10.5772 25.5655 9.69935C24.2049 8.8215 22.6196 8.35456 21 8.35456C19.3804 8.35456 17.7951 8.8215 16.4345 9.69935C15.0739 10.5772 13.9957 11.8287 13.3294 13.3036C12.663 14.7785 12.4367 16.4142 12.6777 18.0144C12.9187 19.6147 13.6167 21.1114 14.688 22.3251C11.2345 23.7189 8.34124 26.2178 6.46139 29.4304C4.96322 26.8807 4.17165 23.9784 4.16803 21.0217C4.16803 16.5615 5.94139 12.2839 9.098 9.13004C12.2546 5.97617 16.5359 4.20435 21 4.20435C25.4641 4.20435 29.7454 5.97617 32.902 9.13004C36.0586 12.2839 37.832 16.5615 37.832 21.0217C37.8284 23.9784 37.0368 26.8807 35.5386 29.4304V29.4304Z" fill="black"/>
</svg>
